<?xml version="1.0" standalone="no"?>
<!DOCTYPE svg PUBLIC "-//W3C//DTD SVG 20010904//EN"
 "http://www.w3.org/TR/2001/REC-SVG-20010904/DTD/svg10.dtd">
<svg version="1.0" xmlns="http://www.w3.org/2000/svg"
 width="700.000000pt" height="700.000000pt" viewBox="0 0 700.000000 700.000000"
 preserveAspectRatio="xMidYMid meet">
<metadata>
Created by potrace 1.14, written by Peter Selinger 2001-2017
</metadata>
<g transform="translate(0.000000,700.000000) scale(0.100000,-0.100000)"
fill="#000000" stroke="none">
<path d="M1050 5153 l0 -938 719 -715 c396 -393 1139 -1133 1652 -1644 l932
-928 911 0 c501 1 919 1 929 1 10 1 -193 211 -524 542 -297 297 -539 542 -537
544 2 1 41 28 88 60 230 155 456 386 606 620 166 258 276 550 328 875 27 166
27 475 1 640 -43 266 -105 459 -220 685 -138 271 -344 528 -560 700 -27 22
-52 43 -55 46 -4 5 -170 116 -235 157 -50 31 -268 133 -345 160 -104 38 -245
77 -325 92 -213 39 -212 39 -1812 39 l-1553 1 0 -937z m3090 -458 c311 -66
544 -286 626 -590 15 -54 19 -102 18 -215 0 -130 -3 -154 -28 -228 -75 -229
-227 -400 -439 -497 -85 -38 -214 -71 -264 -66 -12 1 -1613 1595 -1613 1606 0
3 368 5 818 5 659 -1 830 -4 882 -15z"/>
<path d="M1050 1915 l0 -990 897 2 c494 1 950 2 1014 3 l116 0 -106 104 c-58
57 -149 146 -202 197 -424 412 -732 712 -1120 1090 -173 169 -357 348 -409
399 -52 50 -116 112 -142 138 l-48 46 0 -989z"/>
</g>
</svg>
